<svg xmlns="http://www.w3.org/2000/svg" xmlns:xlink="http://www.w3.org/1999/xlink" width="200" height="200" class="icon" p-id="2314" t="1537517983607" version="1.1" viewBox="0 0 1024 1024"><defs><style type="text/css"/></defs><path fill="#47ae4d" d="M512 0a512 512 0 1 0 512 512A512 512 0 0 0 512 0z m327.554535 373.651898l-342.957664 349.062903a109.334209 109.334209 0 0 1-77.351712 32.822668h-1.064216a109.278197 109.278197 0 0 1-76.903621-31.366372L184.837545 570.811946a36.631441 36.631441 0 1 1 51.25041-52.258615l156.383766 153.359151a36.295372 36.295372 0 0 0 25.709222 10.362105h0.39208a36.463407 36.463407 0 0 0 25.821245-10.866207l342.901651-349.118915a36.631441 36.631441 0 0 1 52.258616 51.306422z m0 0" p-id="2315"/></svg>